<?xml version="1.0" encoding="UTF-8"?>
<!DOCTYPE svg PUBLIC "-//W3C//DTD SVG 1.1//EN" "http://www.w3.org/Graphics/SVG/1.1/DTD/svg11.dtd">
<svg xmlns="http://www.w3.org/2000/svg" version="1.1" width="200px" height="32px" style="shape-rendering:geometricPrecision; text-rendering:geometricPrecision; image-rendering:optimizeQuality; fill-rule:evenodd; clip-rule:evenodd" xmlns:xlink="http://www.w3.org/1999/xlink">
<g><path style="opacity:0.631" fill="#e0d812" d="M 48.5,7.5 C 50.6859,7.51064 51.5192,8.51064 51,10.5C 46.6846,15.9824 41.8513,20.9824 36.5,25.5C 35.4173,24.635 35.2506,23.635 36,22.5C 37.563,21.2748 38.7297,19.7748 39.5,18C 38.4233,15.1166 37.59,12.2833 37,9.5C 38,8.16667 39,8.16667 40,9.5C 40.4363,15.3648 42.4363,16.3648 46,12.5C 47.0945,10.9221 47.9278,9.25542 48.5,7.5 Z"/></g>
<g><path style="opacity:0.681" fill="#e0d812" d="M 64.5,7.5 C 65.5,7.5 66.5,7.5 67.5,7.5C 66.2888,12.4643 65.2888,17.4643 64.5,22.5C 61.4816,22.6646 58.4816,22.498 55.5,22C 54.7029,16.2871 57.3695,13.4538 63.5,13.5C 63.8333,11.5 64.1667,9.5 64.5,7.5 Z M 61.5,15.5 C 62.4484,17.9133 61.4484,19.58 58.5,20.5C 57.479,19.9984 57.3123,19.3317 58,18.5C 59.1451,17.3636 60.3117,16.3636 61.5,15.5 Z"/></g>
<g><path style="opacity:0.624" fill="#e0d812" d="M 92.5,8.5 C 93.6491,8.79106 94.3158,9.62439 94.5,11C 93.6473,13.8748 92.6473,16.7081 91.5,19.5C 94.8932,18.8088 98.3932,18.8088 102,19.5C 102.543,17.3686 103.376,15.3686 104.5,13.5C 105.5,13.8333 106.167,14.5 106.5,15.5C 105.722,18.5395 104.388,21.2062 102.5,23.5C 101.614,22.675 101.281,21.675 101.5,20.5C 97.2961,21.9102 92.9628,22.5769 88.5,22.5C 89.2286,17.6491 90.5619,12.9825 92.5,8.5 Z"/></g>
<g><path style="opacity:0.607" fill="#e0d812" d="M 122.5,8.5 C 123.497,8.47008 124.164,8.97008 124.5,10C 124.146,12.2644 123.146,14.0978 121.5,15.5C 120.368,13.0097 120.701,10.6763 122.5,8.5 Z"/></g>
<g><path style="opacity:0.522" fill="#e0d812" d="M 52.5,9.5 C 56.31,10.7542 56.31,11.7542 52.5,12.5C 52.5,11.5 52.5,10.5 52.5,9.5 Z"/></g>
<g><path style="opacity:0.522" fill="#e0d812" d="M 105.5,9.5 C 107.048,9.82124 107.715,10.8212 107.5,12.5C 104.752,12.5983 104.086,11.5983 105.5,9.5 Z"/></g>
<g><path style="opacity:0.522" fill="#e0d812" d="M 157.5,9.5 C 159.048,9.82124 159.715,10.8212 159.5,12.5C 156.752,12.5983 156.086,11.5983 157.5,9.5 Z"/></g>
<g><path style="opacity:0.654" fill="#e0d812" d="M 163.5,9.5 C 165.176,10.1834 165.843,11.5168 165.5,13.5C 171.794,14.4773 171.46,15.644 164.5,17C 163.269,18.1827 163.269,19.3493 164.5,20.5C 168.974,16.1621 169.974,16.6621 167.5,22C 165.421,22.8077 163.421,22.641 161.5,21.5C 160.167,20.1667 160.167,18.8333 161.5,17.5C 158.952,15.7811 159.285,14.4478 162.5,13.5C 163.246,12.2638 163.579,10.9305 163.5,9.5 Z"/></g>
<g><path style="opacity:0.64" fill="#e0d812" d="M 110.5,12.5 C 113.013,12.9737 115.513,13.307 118,13.5C 118.519,17.4443 117.352,20.7776 114.5,23.5C 113.973,20.6916 113.973,18.025 114.5,15.5C 111.8,17.2344 109.8,19.5677 108.5,22.5C 107.669,18.9595 108.336,15.6262 110.5,12.5 Z"/></g>
<g><path style="opacity:0.627" fill="#e0d812" d="M 129.5,12.5 C 134.704,13.6013 134.704,14.9347 129.5,16.5C 133.022,17.8306 133.355,19.6639 130.5,22C 128.421,22.8077 126.421,22.641 124.5,21.5C 125.729,20.7189 127.062,20.2189 128.5,20C 124.565,17.0124 124.898,14.5124 129.5,12.5 Z"/></g>
<g><path style="opacity:0.627" fill="#e0d812" d="M 149.5,12.5 C 154.704,13.6013 154.704,14.9347 149.5,16.5C 153.022,17.8306 153.355,19.6639 150.5,22C 148.421,22.8077 146.421,22.641 144.5,21.5C 145.729,20.7189 147.062,20.2189 148.5,20C 144.565,17.0124 144.898,14.5124 149.5,12.5 Z"/></g>
<g><path style="opacity:0.617" fill="#e0d812" d="M 51.5,13.5 C 52.5862,13.62 53.2528,14.2867 53.5,15.5C 52.8918,18.3258 51.8918,20.9924 50.5,23.5C 49.6919,23.1924 49.0253,22.6924 48.5,22C 49.4241,19.1354 50.4241,16.302 51.5,13.5 Z"/></g>
<g><path style="opacity:0.658" fill="#e0d812" d="M 72.5,13.5 C 75.6802,13.1762 76.8469,14.5096 76,17.5C 75.2496,18.1258 74.4162,18.6258 73.5,19C 74.624,19.2492 75.624,19.7492 76.5,20.5C 76.3333,20.8333 76.1667,21.1667 76,21.5C 73.2809,22.4438 70.4475,22.7771 67.5,22.5C 66.0828,17.893 67.7494,14.893 72.5,13.5 Z"/></g>
<g><path style="opacity:0.594" fill="#e0d812" d="M 155.5,13.5 C 156.995,13.4148 157.995,14.0815 158.5,15.5C 157.722,18.5395 156.388,21.2062 154.5,23.5C 154.167,22.8333 153.833,22.1667 153.5,21.5C 154.378,18.8702 155.045,16.2035 155.5,13.5 Z"/></g>
<g><path style="opacity:0.658" fill="#e0d812" d="M 176.5,13.5 C 179.68,13.1762 180.847,14.5096 180,17.5C 179.25,18.1258 178.416,18.6258 177.5,19C 178.624,19.2492 179.624,19.7492 180.5,20.5C 180.333,20.8333 180.167,21.1667 180,21.5C 177.281,22.4438 174.448,22.7771 171.5,22.5C 170.083,17.893 171.749,14.893 176.5,13.5 Z"/></g>
<g><path style="opacity:0.645" fill="#e0d812" d="M 78.5,14.5 C 87.7993,14.5361 88.2993,15.5361 80,17.5C 77.7197,17.1058 77.2197,16.1058 78.5,14.5 Z"/></g>
</svg>
